<svg width="32" height="32" viewBox="0 0 21 21" fill="none" xmlns="http://www.w3.org/2000/svg">
  <path d="M20.1172 19.7521C20.1172 19.9541 19.9534 20.1179 19.7514 20.1179H13.7772C13.5752 20.1179 13.4114 19.9541 13.4114 19.7521V13.4121H20.1172V19.7521Z" fill="#EFC71D" />
  <path d="M20.1172 6.70576H13.4114V4.76837e-07H19.7514C19.9534 4.76837e-07 20.1172 0.163761 20.1172 0.365769V6.70576Z" fill="#EFC71D" />
  <rect x="13.4121" y="6.70576" width="6.70576" height="6.70576" transform="rotate(180 13.4121 6.70576)" fill="#EFC71D" />
  <path d="M6.70508 6.70576H0.365085C0.163076 6.70576 -0.000684261 6.542 -0.000684261 6.33999V0.365769C-0.000684261 0.163761 0.163076 4.76837e-07 0.365085 4.76837e-07H6.70508V6.70576Z" fill="#EFC71D" />
  <rect x="20.1172" y="13.4108" width="6.70576" height="6.70576" transform="rotate(180 20.1172 13.4108)" fill="#EFC71D" />
  <path d="M13.4121 13.4108H7.07212C6.87011 13.4108 6.70635 13.2471 6.70635 13.0451V6.70508H13.4121V13.4108Z" fill="#EFC71D" />
  <rect x="6.70508" y="20.1179" width="6.70576" height="6.70576" rx="0.365769" transform="rotate(180 6.70508 20.1179)" fill="#EFC71D" />
</svg>
